<?xml version="1.0" standalone="no"?>
<!DOCTYPE svg PUBLIC "-//W3C//DTD SVG 20010904//EN"
 "http://www.w3.org/TR/2001/REC-SVG-20010904/DTD/svg10.dtd">
<svg version="1.0" xmlns="http://www.w3.org/2000/svg"
 width="16.000000pt" height="16.000000pt" viewBox="0 0 16.000000 16.000000"
 preserveAspectRatio="xMidYMid meet">
<metadata>
Created by potrace 1.11, written by Peter Selinger 2001-2013
</metadata>
<g transform="translate(0.000000,16.000000) scale(0.003125,-0.003125)"
fill="#000000" stroke="none">
<path d="M1377 4626 c-88 -24 -138 -96 -139 -200 -1 -130 74 -204 207 -206 76
0 126 18 166 60 92 97 65 275 -52 335 -41 22 -127 27 -182 11z"/>
<path d="M552 3703 l3 -158 363 -3 362 -2 0 -755 0 -755 -365 0 -365 0 0 -155
0 -155 895 0 895 0 0 155 0 155 -347 2 -348 3 -3 913 -2 912 -545 0 -546 0 3
-157z"/>
<path d="M2890 2030 l0 -1520 185 0 185 0 0 373 0 372 133 126 133 126 384
-489 c211 -269 389 -493 396 -499 7 -6 102 -8 239 -7 l227 3 -496 620 c-273
341 -496 622 -496 625 1 3 194 203 429 445 l428 440 -221 3 -221 2 -366 -367
c-201 -203 -411 -417 -467 -478 l-102 -110 0 928 0 927 -185 0 -185 0 0 -1520z"/>
</g>
</svg>
